<?xml version="1.0" standalone="no"?>
<!DOCTYPE svg PUBLIC "-//W3C//DTD SVG 20010904//EN"
 "http://www.w3.org/TR/2001/REC-SVG-20010904/DTD/svg10.dtd">
<svg version="1.0" xmlns="http://www.w3.org/2000/svg"
 width="260.000000pt" height="260.000000pt" viewBox="0 0 260.000000 260.000000"
 preserveAspectRatio="xMidYMid meet">
<metadata>
Created by potrace 1.11, written by Peter Selinger 2001-2013
</metadata>
<g transform="translate(0.000000,260.000000) scale(0.100000,-0.100000)"
fill="#000000" stroke="none">
<path d="M1236 2245 c-2 -5 -141 -361 -309 -791 -168 -429 -319 -808 -336
-843 -39 -77 -102 -146 -147 -163 -27 -9 -34 -18 -34 -38 l0 -25 265 0 265 0
0 26 c0 25 -4 27 -53 31 -71 6 -143 42 -165 82 -38 71 -13 214 81 451 l43 110
289 0 288 0 90 -240 c71 -192 89 -252 90 -299 2 -52 -1 -60 -24 -78 -16 -12
-49 -22 -87 -25 -59 -5 -62 -7 -62 -32 l0 -26 400 0 400 0 0 28 c0 20 -5 27
-20 27 -25 0 -96 63 -117 104 -9 17 -163 408 -343 869 l-326 838 -92 2 c-54 1
-94 -2 -96 -8z m48 -777 c64 -174 116 -319 116 -322 0 -3 -119 -6 -265 -6
-146 0 -265 2 -265 4 0 4 228 600 262 686 l10 25 13 -35 c7 -19 65 -177 129
-352z"/>
</g>
</svg>
